<?xml version="1.0" encoding="utf-8"?>
<!-- Generator: Adobe Illustrator 16.0.0, SVG Export Plug-In . SVG Version: 6.00 Build 0)  -->
<!DOCTYPE svg PUBLIC "-//W3C//DTD SVG 1.1//EN" "http://www.w3.org/Graphics/SVG/1.1/DTD/svg11.dtd">
<svg version="1.1" id="Layer_1" xmlns="http://www.w3.org/2000/svg" xmlns:xlink="http://www.w3.org/1999/xlink" x="0px" y="0px"
	 width="234.482px" height="158.621px" viewBox="0 0 234.482 158.621" enable-background="new 0 0 234.482 158.621"
	 xml:space="preserve">
<g>
	<path fill-rule="evenodd" clip-rule="evenodd" fill="none" d="M66.674,68.647c0,4.518,0.022,9.037-0.018,13.554
		c-0.009,1.047,0.354,1.445,1.397,1.379c1.036-0.064,2.078-0.01,3.118-0.015c1.564-0.007,1.591-0.027,1.592-1.631
		c0.003-8.196,0.001-16.393,0.002-24.589c0-2.94,0.396-3.509,3.207-4.462c0.602-0.204,1.235-0.384,1.864-0.426
		c4.016-0.269,7.096,1.11,7.915,5.058c0.285,1.373,0.336,2.768,0.332,4.172c-0.019,6.837,0.01,13.674-0.027,20.511
		c-0.005,1.041,0.311,1.457,1.371,1.382c0.994-0.07,1.998-0.011,2.998-0.016c1.571-0.007,1.577-0.01,1.578-1.618
		c0.002-8.196,0.002-16.393,0-24.589c0-3.147,0.062-3.251,3.053-4.414c0.519-0.202,1.061-0.398,1.608-0.465
		c3.954-0.479,7.807,0.755,8.535,5.572c0.293,1.94,0.142,3.912,0.146,5.869c0.016,6.114-0.029,12.229,0.149,18.343
		c0.029,0.979,0.322,1.373,1.314,1.316c1.036-0.06,2.085-0.086,3.116,0.007c1.246,0.111,1.549-0.396,1.542-1.58
		c-0.045-8.077-0.021-16.153-0.03-24.23c0-0.596-0.034-1.202-0.14-1.787c-0.914-5.023-6.414-8.186-11.716-7.741
		c-3.289,0.275-6.344,1.203-9.189,2.853c-0.405,0.234-0.763,0.367-1.191-0.006c-3.447-2.997-7.482-3.242-11.745-2.531
		c-3.71,0.619-6.76,2.555-9.75,4.666c-0.777,0.548-1.057,1.172-1.049,2.104C66.693,59.771,66.673,64.209,66.674,68.647z
		 M120.649,54.557c0,7.279,0.038,14.557-0.033,21.835c-0.014,1.395,0.4,2.384,1.5,3.151c0.328,0.229,0.64,0.481,0.972,0.703
		c3.691,2.465,7.827,3.432,12.19,3.911c4.671,0.513,8.507-0.938,11.088-4.725c5.023-7.369,5.581-15.349,2.073-23.489
		c-1.705-3.957-4.866-6.467-9.168-7.391c-4.158-0.894-8.014,0.029-11.674,1.989c-0.88,0.471-1.079,0.284-1.061-0.646
		c0.039-1.999,0.012-3.999,0.012-5.998c-0.001-4.599-0.015-9.199,0.009-13.797c0.004-0.926-0.262-1.253-1.196-0.895
		c-1.007,0.385-2.027,0.762-3.071,1.017c-1.24,0.302-1.689,0.917-1.676,2.259C120.687,39.84,120.649,47.199,120.649,54.557z
		 M183.669,67.456c0-2.878,0-5.757,0-8.635c-0.002-4.693-2.423-8.201-6.875-9.748c-4.787-1.664-9.489-0.93-14.018,0.957
		c-3.204,1.335-2.711,0.82-1.498,3.873c0.286,0.721,0.651,0.881,1.365,0.522c0.89-0.448,1.81-0.862,2.757-1.164
		c2.539-0.81,5.12-1.305,7.766-0.498c3.432,1.047,4.894,3.468,4.862,7.824c-0.007,0.994-0.334,1.333-1.316,1.314
		c-2.479-0.047-4.958-0.048-7.437-0.005c-2.835,0.049-5.595,0.496-7.954,2.216c-3.766,2.745-4.993,6.566-4.156,10.994
		c0.859,4.55,3.739,7.633,8.188,8.615c6.628,1.46,12.538-0.514,17.711-4.82c0.563-0.469,0.61-1.071,0.608-1.729
		C183.662,73.933,183.668,70.694,183.669,67.456z M192.395,69.029c0,4.396,0.028,8.792-0.021,13.188
		c-0.012,1.063,0.352,1.44,1.388,1.363c0.875-0.065,1.758-0.013,2.637-0.014c1.921-0.001,1.923-0.002,1.924-1.872
		c0.001-8.192,0.013-16.385-0.018-24.577c-0.003-0.902,0.289-1.486,1.025-1.99c2.882-1.969,6.015-2.741,9.442-1.993
		c0.897,0.196,1.324-0.072,1.658-0.855c0.376-0.88,0.84-1.723,1.268-2.581c0.593-1.189,0.48-1.403-0.889-1.523
		c-1.549-0.136-3.096-0.27-4.653-0.031c-4.845,0.743-9.251,2.428-12.895,5.831c-0.634,0.592-0.892,1.234-0.885,2.106
		C192.414,60.397,192.394,64.713,192.395,69.029z M81.645,110.504c-0.012,0-0.024,0-0.036,0c0-4.519,0.004-9.037-0.002-13.557
		c-0.002-1.497-0.114-1.57-1.48-1.084c-0.226,0.08-0.443,0.211-0.675,0.244c-1.314,0.189-1.582,0.988-1.549,2.21
		c0.08,2.997,0.008,5.998,0.036,8.997c0.008,0.883-0.226,1.196-1.11,0.789c-0.504-0.232-1.049-0.396-1.591-0.526
		c-3.472-0.838-6.651-0.592-9.209,2.324c-3.618,4.125-3.652,12.387-0.019,16.511c1.271,1.442,2.828,2.36,4.759,2.497
		c3.619,0.255,6.844-0.866,9.817-2.878c0.782-0.529,1.083-1.149,1.075-2.092C81.623,119.462,81.645,114.982,81.645,110.504z
		 M58.883,118.619c0-1.72,0.004-3.439,0-5.16c-0.008-2.749-1.411-4.863-4.042-5.753c-3.286-1.11-6.462-0.56-9.516,0.955
		c-0.92,0.457-0.387,1.061-0.176,1.619c0.213,0.564,0.48,1.007,1.234,0.629c1.225-0.614,2.543-0.94,3.899-1.123
		c2.98-0.4,5.21,1.618,5.103,4.559c-0.029,0.795-0.341,1.046-1.088,1.032c-1.52-0.027-3.042-0.049-4.559,0.009
		c-4.017,0.153-6.805,2.604-7.054,6.145c-0.251,3.574,2.159,6.793,5.732,7.293c3.604,0.504,6.892-0.48,9.759-2.768
		c0.507-0.404,0.727-0.898,0.717-1.558C58.864,122.539,58.881,120.579,58.883,118.619z M162.275,117.889c0-0.002,0-0.004,0-0.006
		c1.799,0,3.599-0.012,5.397,0.006c0.687,0.007,1.089-0.239,1.021-0.974c-0.154-1.67-0.3-3.342-0.912-4.931
		c-0.97-2.512-2.707-4.104-5.41-4.539c-3.045-0.491-5.815,0.056-7.731,2.644c-2.504,3.383-3.01,7.266-2.139,11.3
		c0.668,3.096,2.147,5.795,5.291,6.943c3.588,1.31,7.08,0.696,10.354-1.231c0.535-0.315,0.67-0.686,0.417-1.292
		c-0.34-0.812-0.72-1.133-1.618-0.668c-1.842,0.952-3.812,1.508-5.9,1.197c-3.016-0.449-5.765-4.905-4.959-7.893
		c0.164-0.609,0.604-0.551,1.032-0.553C158.837,117.884,160.555,117.889,162.275,117.889z M104.714,128.627
		c2.358,0,4.717-0.021,7.075,0.011c0.969,0.013,1.58-0.128,1.57-1.354c-0.009-1.16-0.488-1.409-1.521-1.393
		c-2.917,0.047-5.836-0.014-8.753,0.032c-1.029,0.016-1.168-0.174-0.623-1.09c3.129-5.254,6.209-10.536,9.3-15.812
		c0.733-1.251,0.674-1.351-0.798-1.353c-3.877-0.006-7.756,0.048-11.632-0.031c-1.204-0.025-1.831,0.412-2.25,1.478
		c-0.438,1.112-0.412,1.253,0.781,1.264c2.519,0.021,5.037,0.002,7.555,0.011c1.297,0.004,1.319,0.04,0.682,1.127
		c-3.051,5.207-6.112,10.407-9.158,15.617c-0.834,1.426-0.791,1.487,0.817,1.491C100.077,128.632,102.395,128.628,104.714,128.627z
		 M199.333,125.908c-0.017-0.612,0.313-0.939,0.526-1.305c3.031-5.173,6.073-10.34,9.109-15.51c0.766-1.305,0.699-1.422-0.825-1.424
		c-3.798-0.006-7.597,0.054-11.394-0.034c-1.276-0.029-1.969,0.389-2.459,1.546c-0.396,0.937-0.219,1.22,0.76,1.211
		c2.479-0.021,4.958-0.011,7.437,0c0.391,0.002,0.913-0.172,1.138,0.163c0.288,0.43-0.192,0.801-0.402,1.16
		c-2.987,5.105-5.988,10.204-8.982,15.307c-0.859,1.464-0.778,1.599,0.973,1.604c1.96,0.007,3.919,0.002,5.878,0.002
		c2.758-0.001,5.518-0.023,8.275,0.007c1.009,0.011,1.183-0.521,1.172-1.367c-0.012-0.818-0.114-1.42-1.158-1.368
		c-1.037,0.051-2.078,0.009-3.117,0.009C203.957,125.907,201.652,125.908,199.333,125.908z M140.663,123.648
		c-0.348-0.766-0.57-1.22-0.765-1.687c-1.784-4.279-3.543-8.569-5.353-12.839c-1.159-2.732-0.444-2.6-3.481-1.365
		c-0.706,0.288-0.879,0.651-0.578,1.375c2.634,6.35,5.242,12.711,7.861,19.066c0.12,0.291,0.212,0.621,0.552,0.746
		c0.636,0.233,3.128-0.915,3.384-1.594c2.304-6.094,4.582-12.197,6.898-18.286c0.55-1.443-0.767-1.31-1.387-1.713
		c-0.791-0.513-0.927,0.24-1.118,0.737c-1.64,4.251-3.268,8.507-4.903,12.76C141.451,121.688,141.111,122.521,140.663,123.648z
		 M177.427,110.237c0-4.479,0.006-8.959-0.01-13.438c-0.002-0.396,0.207-1.096-0.371-1.102c-1.039-0.012-2.03,0.422-2.946,0.902
		c-0.6,0.315-0.379,1.004-0.38,1.538c-0.012,8.239-0.015,16.478-0.005,24.717c0.005,4.11,2.325,6.287,6.427,6.084
		c0.612-0.03,1.099-0.099,1.128-0.894c0.027-0.74-0.154-1.182-0.969-1.358c-2.4-0.519-2.869-1.139-2.872-3.611
		C177.425,118.796,177.428,114.517,177.427,110.237z M23.905,118.611c-0.139,2,0.475,4.168,1.636,6.183
		c1.26,2.186,3.075,3.743,5.616,4.076c2.792,0.366,5.48-0.159,7.994-1.514c0.752-0.405,0.952-0.781,0.542-1.591
		c-0.406-0.801-0.798-1.072-1.657-0.615c-0.734,0.39-1.533,0.695-2.336,0.915c-3.112,0.852-5.403,0.005-6.791-2.712
		c-1.976-3.871-1.698-7.74,0.593-11.393c1.11-1.769,2.818-2.501,4.963-2.095c0.987,0.187,1.938,0.46,2.88,0.793
		c1.087,0.385,1.097-0.641,1.475-1.153c0.336-0.457,0.134-0.802-0.337-1.06c-3.269-1.787-8.514-2.058-11.588,1.448
		C24.795,112.289,23.855,115.098,23.905,118.611z M91.746,117.816c0-3.158-0.021-6.316,0.013-9.474
		c0.01-0.983-0.356-1.216-1.223-0.865c-0.296,0.12-0.598,0.255-0.909,0.302c-1.343,0.204-1.638,1.005-1.623,2.28
		c0.065,5.396,0.027,10.793,0.027,16.19c0,2.46,0,2.423,2.421,2.394c0.989-0.012,1.324-0.375,1.311-1.353
		C91.72,124.134,91.747,120.975,91.746,117.816z M188.963,117.901c0-2.874,0.01-5.747-0.003-8.621
		c-0.009-2.202,0.309-2.221-2.124-1.516c-1.269,0.367-1.65,0.988-1.634,2.283c0.071,5.389,0.03,10.777,0.03,16.166
		c0,2.52-0.001,2.489,2.499,2.427c0.916-0.023,1.26-0.342,1.247-1.279C188.935,124.209,188.962,121.056,188.963,117.901z
		 M47.572,104.675c0.348-0.149,0.681-0.276,1-0.435c2.04-1.008,4.088-1.998,6.11-3.04c2.186-1.126,2.212-0.541,1.033-3.094
		c-0.4-0.865-0.819-0.849-1.56-0.393c-2.412,1.487-4.87,2.897-7.291,4.371c-0.392,0.238-1.19,0.358-0.903,1.031
		C46.251,103.793,46.842,104.325,47.572,104.675z M165.92,99.76c-0.191-0.406-0.48-0.934-0.694-1.49
		c-0.328-0.856-0.722-1.075-1.596-0.527c-2.437,1.525-4.938,2.947-7.395,4.442c-0.38,0.231-1.13,0.297-0.818,1.067
		c0.334,0.825,1.538,1.523,2.165,1.221c2.627-1.265,5.238-2.561,7.853-3.852C165.72,100.48,166.019,100.323,165.92,99.76z
		 M189.438,100.695c0.009-1.384-0.933-2.376-2.266-2.39c-1.389-0.015-2.445,1.026-2.433,2.393c0.012,1.316,1.04,2.321,2.371,2.316
		C188.503,103.01,189.43,102.085,189.438,100.695z M87.523,100.579c-0.038,1.371,0.89,2.385,2.229,2.434
		c1.363,0.051,2.418-0.885,2.478-2.197c0.064-1.39-0.952-2.502-2.293-2.511C88.589,98.296,87.558,99.267,87.523,100.579z"/>
	<path fill-rule="evenodd" clip-rule="evenodd" d="M22.079,83.018c2.441-6.598,4.89-13.194,7.322-19.795
		c3.332-9.039,6.661-18.08,9.963-27.13c0.303-0.831,0.754-1.334,1.617-1.564c1.041-0.278,2.054-0.66,3.08-0.995
		c1.524-0.498,1.526-0.498,2.026,0.992c3.854,11.482,7.706,22.965,11.562,34.447c1.463,4.358,2.937,8.712,4.397,13.071
		c0.495,1.477,0.458,1.517-1.14,1.523c-1.08,0.004-2.166-0.069-3.238,0.02c-1.143,0.094-1.708-0.313-2.071-1.434
		c-1.381-4.258-2.891-8.475-4.287-12.728c-0.303-0.922-0.744-1.232-1.71-1.224c-5.359,0.044-10.719,0.051-16.078-0.004
		c-1.043-0.011-1.468,0.386-1.796,1.306c-1.519,4.254-3.127,8.476-4.637,12.733c-0.348,0.981-0.826,1.446-1.897,1.347
		c-1.032-0.095-2.076-0.062-3.114-0.085C22.079,83.337,22.079,83.178,22.079,83.018z M42.078,41.772
		c-0.211,0.459-0.287,0.597-0.341,0.743c-2.552,6.929-5.088,13.864-7.668,20.783c-0.37,0.994,0.136,0.959,0.818,0.958
		c4.433-0.009,8.866-0.003,13.299-0.006c1.386-0.001,1.394-0.01,0.961-1.307c-2.059-6.171-4.122-12.341-6.184-18.512
		C42.7,43.642,42.437,42.852,42.078,41.772z"/>
	<path fill-rule="evenodd" clip-rule="evenodd" d="M48.479,17.978c0.581,1.228,1.132,2.471,1.753,3.677
		c0.368,0.716,0.289,1.121-0.485,1.498c-4.458,2.167-8.899,4.372-13.337,6.581c-0.609,0.303-1.061,0.3-1.602-0.203
		c-2.487-2.314-2.492-2.282,0.411-4.015c4.188-2.499,8.361-5.024,12.54-7.538C47.999,17.978,48.239,17.978,48.479,17.978z"/>
	<path fill-rule="evenodd" clip-rule="evenodd" d="M66.673,68.647c0-4.438,0.02-8.876-0.018-13.314
		c-0.008-0.932,0.272-1.555,1.049-2.104c2.99-2.111,6.04-4.046,9.75-4.666c4.263-0.71,8.298-0.466,11.745,2.531
		c0.429,0.373,0.787,0.24,1.191,0.006c2.846-1.649,5.9-2.577,9.189-2.853c5.303-0.444,10.803,2.718,11.716,7.741
		c0.106,0.585,0.14,1.19,0.14,1.787c0.009,8.077-0.015,16.153,0.03,24.23c0.006,1.184-0.297,1.691-1.542,1.58
		c-1.031-0.093-2.08-0.066-3.116-0.007c-0.993,0.057-1.286-0.338-1.314-1.316c-0.178-6.114-0.133-12.229-0.149-18.343
		c-0.005-1.958,0.146-3.929-0.146-5.869c-0.728-4.816-4.582-6.051-8.535-5.572c-0.547,0.066-1.089,0.263-1.608,0.465
		c-2.991,1.163-3.053,1.267-3.053,4.414c0.002,8.197,0.002,16.393,0,24.589c0,1.608-0.007,1.611-1.578,1.618
		c-1,0.005-2.003-0.055-2.998,0.016c-1.06,0.075-1.376-0.341-1.371-1.382c0.037-6.837,0.008-13.674,0.027-20.511
		c0.004-1.404-0.047-2.8-0.332-4.172c-0.819-3.948-3.899-5.327-7.915-5.058c-0.629,0.042-1.262,0.222-1.864,0.426
		c-2.811,0.953-3.207,1.522-3.207,4.462c0,8.196,0.001,16.393-0.002,24.589c-0.001,1.604-0.027,1.624-1.592,1.631
		c-1.04,0.005-2.083-0.05-3.118,0.015c-1.043,0.066-1.407-0.332-1.397-1.379C66.696,77.684,66.674,73.165,66.673,68.647z"/>
	<path fill-rule="evenodd" clip-rule="evenodd" d="M120.649,54.557c0-7.358,0.038-14.717-0.035-22.075
		c-0.014-1.342,0.436-1.958,1.676-2.259c1.044-0.255,2.064-0.632,3.071-1.017c0.935-0.358,1.2-0.031,1.196,0.895
		c-0.023,4.599-0.01,9.198-0.009,13.797c0,2,0.027,4-0.012,5.998c-0.019,0.93,0.181,1.117,1.061,0.646
		c3.66-1.96,7.516-2.883,11.674-1.989c4.302,0.924,7.463,3.434,9.168,7.391c3.508,8.141,2.95,16.12-2.073,23.489
		c-2.581,3.787-6.417,5.237-11.088,4.725c-4.363-0.479-8.499-1.446-12.19-3.911c-0.332-0.222-0.644-0.475-0.972-0.703
		c-1.1-0.767-1.514-1.756-1.5-3.151C120.687,69.114,120.649,61.836,120.649,54.557z M126.549,66.113c0.005,0,0.01,0,0.015,0
		c0,3.396,0.009,6.792-0.008,10.188c-0.003,0.638,0.079,1.182,0.684,1.541c2.939,1.752,6.097,2.618,9.507,2.062
		c2.973-0.485,4.515-2.652,5.608-5.222c0.934-2.195,1.336-4.522,1.484-6.876c0.234-3.731,0.104-7.443-1.547-10.905
		c-1.207-2.531-3.243-3.954-6.046-4.337c-3.116-0.427-5.896,0.57-8.646,1.83c-0.813,0.373-1.077,0.9-1.067,1.771
		C126.573,59.48,126.549,62.797,126.549,66.113z"/>
	<path fill-rule="evenodd" clip-rule="evenodd" d="M183.668,67.456c0,3.238-0.006,6.477,0.005,9.715
		c0.002,0.659-0.045,1.26-0.608,1.729c-5.173,4.307-11.083,6.28-17.711,4.82c-4.449-0.981-7.329-4.064-8.188-8.615
		c-0.837-4.428,0.391-8.249,4.156-10.994c2.359-1.72,5.119-2.167,7.954-2.216c2.479-0.042,4.958-0.042,7.437,0.005
		c0.982,0.019,1.31-0.32,1.316-1.314c0.031-4.356-1.431-6.777-4.862-7.824c-2.646-0.807-5.227-0.313-7.766,0.498
		c-0.947,0.302-1.867,0.716-2.757,1.164c-0.714,0.359-1.079,0.199-1.365-0.522c-1.213-3.053-1.706-2.538,1.498-3.873
		c4.528-1.887,9.23-2.621,14.018-0.957c4.452,1.547,6.873,5.054,6.875,9.748C183.669,61.699,183.669,64.578,183.668,67.456z
		 M177.791,71.765c0-1.596-0.035-3.193,0.014-4.789c0.027-0.892-0.312-1.204-1.19-1.165c-2.469,0.107-4.943,0.105-7.41,0.25
		c-2.924,0.172-5.359,2.219-5.967,4.881c-0.893,3.907,1.654,7.96,5.574,8.873c3.055,0.711,5.745-0.194,8.271-1.849
		c0.52-0.34,0.722-0.797,0.714-1.413C177.775,74.958,177.79,73.361,177.791,71.765z"/>
	<path fill-rule="evenodd" clip-rule="evenodd" d="M192.394,69.029c0-4.316,0.02-8.632-0.017-12.948
		c-0.007-0.872,0.251-1.514,0.885-2.106c3.644-3.403,8.05-5.088,12.895-5.831c1.558-0.238,3.104-0.105,4.653,0.031
		c1.369,0.12,1.481,0.334,0.889,1.523c-0.428,0.858-0.892,1.701-1.268,2.581c-0.334,0.783-0.761,1.051-1.658,0.855
		c-3.428-0.748-6.561,0.023-9.442,1.993c-0.736,0.503-1.028,1.087-1.025,1.99c0.03,8.192,0.019,16.385,0.018,24.577
		c-0.001,1.87-0.003,1.871-1.924,1.872c-0.879,0.001-1.762-0.052-2.637,0.014c-1.036,0.077-1.399-0.3-1.388-1.363
		C192.424,77.821,192.395,73.425,192.394,69.029z"/>
	<path fill-rule="evenodd" clip-rule="evenodd" d="M81.645,110.504c0,4.479-0.021,8.958,0.017,13.436
		c0.008,0.942-0.293,1.563-1.075,2.092c-2.973,2.012-6.198,3.133-9.817,2.878c-1.931-0.137-3.488-1.055-4.759-2.497
		c-3.634-4.124-3.599-12.386,0.019-16.511c2.558-2.916,5.737-3.162,9.209-2.324c0.542,0.13,1.086,0.294,1.591,0.526
		c0.884,0.407,1.118,0.094,1.11-0.789c-0.028-2.999,0.044-6-0.036-8.997c-0.033-1.222,0.235-2.021,1.549-2.21
		c0.232-0.033,0.449-0.164,0.675-0.244c1.366-0.486,1.478-0.413,1.48,1.084c0.006,4.52,0.002,9.038,0.002,13.557
		C81.621,110.504,81.633,110.504,81.645,110.504z M77.929,118.202c0-1.437,0-2.874,0-4.312c0-2.636-0.098-2.779-2.595-3.667
		c-0.337-0.12-0.688-0.205-1.038-0.282c-2.56-0.563-4.35,0.095-5.534,2.396c-2.03,3.945-2.035,7.98,0.068,11.925
		c0.887,1.664,2.387,2.45,4.274,2.283c1.319-0.116,2.551-0.592,3.743-1.188c0.766-0.384,1.132-0.865,1.1-1.765
		C77.884,121.797,77.928,119.999,77.929,118.202z"/>
	<path fill-rule="evenodd" clip-rule="evenodd" d="M58.882,118.619c-0.001,1.96-0.018,3.92,0.009,5.879
		c0.009,0.659-0.21,1.153-0.717,1.558c-2.868,2.287-6.155,3.271-9.759,2.768c-3.573-0.5-5.983-3.719-5.732-7.293
		c0.249-3.541,3.038-5.991,7.054-6.145c1.518-0.058,3.04-0.036,4.559-0.009c0.747,0.014,1.059-0.237,1.088-1.032
		c0.108-2.94-2.123-4.959-5.103-4.559c-1.356,0.183-2.675,0.509-3.899,1.123c-0.753,0.378-1.021-0.064-1.234-0.629
		c-0.21-0.559-0.744-1.162,0.176-1.619c3.054-1.515,6.23-2.065,9.516-0.955c2.631,0.89,4.034,3.004,4.042,5.753
		C58.886,115.18,58.883,116.899,58.882,118.619z M55.351,121.435c0-0.879-0.02-1.758,0.006-2.636c0.02-0.675-0.285-0.93-0.937-0.914
		c-1.198,0.028-2.401-0.043-3.593,0.043c-3.045,0.22-4.539,1.882-4.22,4.606c0.243,2.075,2.182,3.803,4.42,3.805
		c1.422,0.001,2.792-0.412,3.891-1.341c0.859-0.726,0.295-1.811,0.429-2.726C55.388,121.998,55.354,121.714,55.351,121.435z"/>
	<path fill-rule="evenodd" clip-rule="evenodd" d="M162.275,117.889c-1.72,0-3.438-0.005-5.157,0.004
		c-0.429,0.002-0.868-0.057-1.032,0.553c-0.806,2.987,1.943,7.443,4.959,7.893c2.089,0.311,4.059-0.245,5.9-1.197
		c0.898-0.465,1.278-0.144,1.618,0.668c0.253,0.606,0.118,0.977-0.417,1.292c-3.273,1.928-6.766,2.541-10.354,1.231
		c-3.144-1.148-4.623-3.848-5.291-6.943c-0.871-4.034-0.365-7.917,2.139-11.3c1.916-2.588,4.687-3.135,7.731-2.644
		c2.703,0.436,4.44,2.027,5.41,4.539c0.612,1.589,0.758,3.261,0.912,4.931c0.067,0.734-0.335,0.98-1.021,0.974
		c-1.799-0.018-3.599-0.006-5.397-0.006C162.275,117.885,162.275,117.887,162.275,117.889z M160.396,115.583
		c0,0.001,0,0.003,0,0.005c0.598,0,1.195,0,1.793,0c2.926,0,3.313-0.657,1.998-3.397c-0.068-0.144-0.137-0.288-0.216-0.426
		c-1.018-1.78-2.879-2.478-4.687-1.757c-1.578,0.63-3.074,3.105-2.977,4.854c0.033,0.605,0.365,0.724,0.86,0.722
		C158.245,115.579,159.321,115.583,160.396,115.583z"/>
	<path fill-rule="evenodd" clip-rule="evenodd" d="M104.714,128.627c-2.319,0.001-4.637,0.005-6.956-0.001
		c-1.608-0.004-1.651-0.065-0.817-1.491c3.046-5.21,6.107-10.41,9.158-15.617c0.637-1.087,0.615-1.123-0.682-1.127
		c-2.519-0.009-5.037,0.01-7.555-0.011c-1.193-0.011-1.219-0.151-0.781-1.264c0.42-1.065,1.046-1.503,2.25-1.478
		c3.876,0.079,7.754,0.025,11.632,0.031c1.472,0.002,1.531,0.102,0.798,1.353c-3.091,5.275-6.17,10.558-9.3,15.812
		c-0.546,0.916-0.407,1.105,0.623,1.09c2.917-0.046,5.836,0.015,8.753-0.032c1.033-0.017,1.513,0.232,1.521,1.393
		c0.01,1.226-0.601,1.366-1.57,1.354C109.431,128.606,107.073,128.627,104.714,128.627z"/>
	<path fill-rule="evenodd" clip-rule="evenodd" d="M199.333,125.908c2.319,0,4.624-0.001,6.93,0c1.039,0,2.08,0.042,3.117-0.009
		c1.044-0.052,1.146,0.55,1.158,1.368c0.011,0.846-0.163,1.378-1.172,1.367c-2.758-0.03-5.518-0.008-8.275-0.007
		c-1.959,0-3.918,0.005-5.878-0.002c-1.751-0.005-1.832-0.14-0.973-1.604c2.994-5.103,5.995-10.201,8.982-15.307
		c0.21-0.359,0.69-0.73,0.402-1.16c-0.225-0.335-0.747-0.161-1.138-0.163c-2.479-0.011-4.957-0.021-7.437,0
		c-0.979,0.009-1.156-0.274-0.76-1.211c0.49-1.157,1.183-1.575,2.459-1.546c3.797,0.088,7.596,0.028,11.394,0.034
		c1.524,0.002,1.591,0.119,0.825,1.424c-3.036,5.17-6.078,10.337-9.109,15.51C199.645,124.969,199.316,125.296,199.333,125.908z"/>
	<path fill-rule="evenodd" clip-rule="evenodd" d="M140.663,123.648c0.448-1.127,0.788-1.96,1.11-2.799
		c1.636-4.253,3.264-8.509,4.903-12.76c0.191-0.497,0.327-1.25,1.118-0.737c0.62,0.403,1.937,0.27,1.387,1.713
		c-2.316,6.089-4.595,12.192-6.898,18.286c-0.256,0.679-2.748,1.827-3.384,1.594c-0.34-0.125-0.432-0.455-0.552-0.746
		c-2.619-6.355-5.228-12.717-7.861-19.066c-0.301-0.724-0.128-1.087,0.578-1.375c3.037-1.234,2.322-1.367,3.481,1.365
		c1.81,4.27,3.568,8.56,5.353,12.839C140.093,122.429,140.315,122.883,140.663,123.648z"/>
	<path fill-rule="evenodd" clip-rule="evenodd" d="M177.428,110.237c0,4.279-0.004,8.559,0.001,12.838
		c0.003,2.473,0.472,3.093,2.872,3.611c0.814,0.177,0.996,0.618,0.969,1.358c-0.029,0.795-0.516,0.863-1.128,0.894
		c-4.102,0.203-6.422-1.974-6.427-6.084c-0.01-8.239-0.007-16.478,0.005-24.717c0.001-0.534-0.22-1.223,0.38-1.538
		c0.916-0.48,1.907-0.914,2.946-0.902c0.578,0.006,0.369,0.705,0.371,1.102C177.433,101.278,177.427,105.758,177.428,110.237z"/>
	<path fill-rule="evenodd" clip-rule="evenodd" d="M23.905,118.611c-0.05-3.514,0.89-6.322,2.99-8.717
		c3.074-3.506,8.32-3.235,11.588-1.448c0.471,0.258,0.673,0.603,0.337,1.06c-0.377,0.513-0.388,1.538-1.475,1.153
		c-0.941-0.333-1.893-0.606-2.88-0.793c-2.145-0.406-3.853,0.326-4.963,2.095c-2.291,3.652-2.569,7.521-0.593,11.393
		c1.387,2.717,3.678,3.563,6.791,2.712c0.803-0.22,1.602-0.525,2.336-0.915c0.859-0.457,1.251-0.186,1.657,0.615
		c0.41,0.81,0.21,1.186-0.542,1.591c-2.514,1.354-5.202,1.88-7.994,1.514c-2.541-0.333-4.356-1.891-5.616-4.076
		C24.379,122.779,23.766,120.611,23.905,118.611z"/>
	<path fill-rule="evenodd" clip-rule="evenodd" d="M91.747,117.816c0,3.158-0.026,6.317,0.017,9.475
		c0.013,0.978-0.322,1.341-1.311,1.353c-2.421,0.029-2.421,0.066-2.421-2.394c0-5.397,0.038-10.795-0.027-16.19
		c-0.016-1.275,0.279-2.076,1.623-2.28c0.311-0.047,0.613-0.182,0.909-0.302c0.867-0.351,1.233-0.118,1.223,0.865
		C91.725,111.5,91.746,114.658,91.747,117.816z"/>
	<path fill-rule="evenodd" clip-rule="evenodd" d="M188.963,117.901c-0.001,3.154-0.027,6.308,0.016,9.46
		c0.013,0.938-0.331,1.256-1.247,1.279c-2.5,0.063-2.499,0.093-2.499-2.427c0-5.389,0.041-10.777-0.03-16.166
		c-0.017-1.295,0.365-1.916,1.634-2.283c2.433-0.705,2.115-0.687,2.124,1.516C188.972,112.154,188.963,115.027,188.963,117.901z"/>
	<path fill-rule="evenodd" clip-rule="evenodd" d="M47.572,104.675c-0.73-0.35-1.321-0.882-1.611-1.559
		c-0.288-0.673,0.511-0.793,0.903-1.031c2.42-1.474,4.879-2.884,7.291-4.371c0.741-0.456,1.16-0.473,1.56,0.393
		c1.179,2.553,1.153,1.968-1.033,3.094c-2.022,1.042-4.07,2.032-6.11,3.04C48.253,104.398,47.92,104.525,47.572,104.675z"/>
	<path fill-rule="evenodd" clip-rule="evenodd" d="M165.92,99.76c0.1,0.563-0.199,0.721-0.485,0.861
		c-2.614,1.291-5.226,2.587-7.853,3.852c-0.627,0.303-1.831-0.396-2.165-1.221c-0.312-0.771,0.438-0.836,0.818-1.067
		c2.457-1.495,4.958-2.917,7.395-4.442c0.874-0.548,1.268-0.329,1.596,0.527C165.439,98.826,165.728,99.354,165.92,99.76z"/>
	<path fill-rule="evenodd" clip-rule="evenodd" d="M189.438,100.695c-0.008,1.39-0.936,2.314-2.327,2.319
		c-1.331,0.005-2.359-1-2.371-2.316c-0.013-1.366,1.044-2.407,2.433-2.393C188.506,98.319,189.447,99.312,189.438,100.695z"/>
	<path fill-rule="evenodd" clip-rule="evenodd" d="M87.523,100.579c0.035-1.313,1.065-2.283,2.413-2.274
		c1.342,0.009,2.357,1.121,2.293,2.511c-0.06,1.313-1.115,2.248-2.478,2.197C88.413,102.964,87.486,101.95,87.523,100.579z"/>
	<path fill-rule="evenodd" clip-rule="evenodd" fill="none" d="M42.078,41.772c0.359,1.079,0.622,1.869,0.886,2.658
		c2.062,6.17,4.125,12.34,6.184,18.512c0.433,1.297,0.424,1.306-0.961,1.307c-4.433,0.003-8.866-0.003-13.299,0.006
		c-0.682,0.001-1.188,0.036-0.818-0.958c2.58-6.919,5.116-13.854,7.668-20.783C41.791,42.369,41.866,42.231,42.078,41.772z"/>
	<path fill-rule="evenodd" clip-rule="evenodd" fill="none" d="M126.549,66.113c0-3.316,0.024-6.633-0.017-9.949
		c-0.01-0.871,0.254-1.398,1.067-1.771c2.751-1.26,5.53-2.256,8.646-1.83c2.803,0.383,4.839,1.806,6.046,4.337
		c1.65,3.462,1.781,7.174,1.547,10.905c-0.148,2.354-0.551,4.681-1.484,6.876c-1.094,2.57-2.636,4.737-5.608,5.222
		c-3.41,0.557-6.567-0.31-9.507-2.062c-0.604-0.359-0.687-0.903-0.684-1.541c0.017-3.396,0.008-6.792,0.008-10.188
		C126.558,66.113,126.553,66.113,126.549,66.113z"/>
	<path fill-rule="evenodd" clip-rule="evenodd" fill="none" d="M177.79,71.765c0,1.596-0.015,3.193,0.007,4.789
		c0.008,0.615-0.194,1.073-0.714,1.413c-2.526,1.655-5.217,2.56-8.271,1.849c-3.92-0.913-6.467-4.966-5.574-8.873
		c0.607-2.662,3.043-4.709,5.967-4.881c2.467-0.145,4.941-0.143,7.41-0.25c0.879-0.039,1.218,0.273,1.19,1.165
		C177.756,68.571,177.791,70.168,177.79,71.765z"/>
	<path fill-rule="evenodd" clip-rule="evenodd" fill="none" d="M77.928,118.202c0,1.797-0.045,3.595,0.019,5.39
		c0.032,0.899-0.334,1.381-1.1,1.765c-1.192,0.597-2.424,1.072-3.743,1.188c-1.887,0.167-3.387-0.619-4.274-2.283
		c-2.104-3.944-2.099-7.979-0.068-11.925c1.184-2.301,2.974-2.958,5.534-2.396c0.35,0.077,0.701,0.162,1.038,0.282
		c2.497,0.888,2.595,1.031,2.595,3.667C77.929,115.328,77.929,116.766,77.928,118.202z"/>
	<path fill-rule="evenodd" clip-rule="evenodd" fill="none" d="M55.353,121.435c0.001,0.279,0.035,0.563-0.005,0.838
		c-0.134,0.915,0.43,2-0.429,2.726c-1.099,0.929-2.469,1.342-3.891,1.341c-2.238-0.002-4.177-1.729-4.42-3.805
		c-0.319-2.725,1.175-4.387,4.22-4.606c1.192-0.086,2.396-0.015,3.593-0.043c0.652-0.016,0.957,0.239,0.937,0.914
		C55.332,119.677,55.351,120.556,55.353,121.435z"/>
	<path fill-rule="evenodd" clip-rule="evenodd" fill="none" d="M160.396,115.583c-1.075,0-2.151-0.004-3.228,0.001
		c-0.495,0.002-0.827-0.116-0.86-0.722c-0.098-1.749,1.398-4.225,2.977-4.854c1.808-0.721,3.669-0.023,4.687,1.757
		c0.079,0.138,0.147,0.282,0.216,0.426c1.314,2.74,0.928,3.397-1.998,3.397c-0.598,0-1.195,0-1.793,0
		C160.396,115.586,160.396,115.584,160.396,115.583z"/>
</g>
</svg>
